<?xml version="1.0" encoding="utf-8"?>
<!-- Generator: Adobe Illustrator 22.1.0, SVG Export Plug-In . SVG Version: 6.00 Build 0)  -->
<svg version="1.1" id="Layer_1" xmlns="http://www.w3.org/2000/svg" xmlns:xlink="http://www.w3.org/1999/xlink" x="0px" y="0px"
	 viewBox="0 0 300 300" style="enable-background:new 0 0 300 300;" xml:space="preserve">
<path d="M232,197.4c0-18.4-8.9-35.2-23.4-47.4c-12.3-10.3-28.4-17.5-46.6-19.7V77.2c7.9,2.4,14.4,7.3,18.1,13.5
	c2.8,4.7,9.1,5.6,13,1.8l20.7-20.7c3.3-3.3,3.2-8.4,0-11.6c-12.6-13-30.9-22.1-51.8-24.6V18.6c0-4.7-3.9-8.6-8.6-8.6h-7
	c-4.7,0-8.6,3.9-8.6,8.6v16.9c-39.5,4.9-69.9,33-69.9,67.2c0,18.4,8.9,35.2,23.4,47.4c12.3,10.3,28.4,17.5,46.6,19.7v53
	c-7.9-2.4-14.4-7.3-18.1-13.5c-2.8-4.7-9.1-5.6-13-1.8l-20.7,20.7c-3.3,3.3-3.2,8.4,0,11.6c12.6,13,30.9,22.1,51.8,24.6v16.9
	c0,4.7,3.9,8.6,8.6,8.6h7c4.7,0,8.6-3.9,8.6-8.6v-16.9C201.7,259.8,232,231.5,232,197.4z M118.3,102.6c0-11,8.1-20.6,19.7-24.7v49.5
	C126.4,123.2,118.3,113.6,118.3,102.6z M162.1,222.2v-49.5c11.5,4.1,19.7,13.7,19.7,24.7C181.7,208.5,173.7,218.1,162.1,222.2z"/>
</svg>
