<?xml version="1.0" encoding="utf-8"?>
<!-- Generator: Adobe Illustrator 22.1.0, SVG Export Plug-In . SVG Version: 6.00 Build 0)  -->
<svg version="1.1" id="Layer_1" xmlns="http://www.w3.org/2000/svg" xmlns:xlink="http://www.w3.org/1999/xlink" x="0px" y="0px"
	 viewBox="0 0 300 300" style="enable-background:new 0 0 300 300;" xml:space="preserve">
<g>
	<path d="M13.7,151.4c0-29.3,22.6-50.8,51.1-50.8c18,0,30.8,6.4,39.7,20.3l-15.6,11.1c-4.7-7.6-12.7-13-24.1-13
		c-18,0-30.1,13.9-30.1,32.4c0,18.5,12.1,32.7,30.1,32.7c12.8,0,20-6.1,25.5-14.6l15.9,11c-8.6,13.4-22.3,21.9-41.5,21.9
		C36.3,202.3,13.7,180.7,13.7,151.4z"/>
	<path d="M121.4,101.7h20.4v50.8h42.5v-50.8h20.4V201h-20.4v-30.2h-42.5V201h-20.4V101.7z"/>
	<path d="M225.5,101.7h63.9v18H246v32.8h39.6v18.3H246V201h-20.4V101.7z"/>
</g>
</svg>
