<?xml version="1.0" encoding="utf-8"?>
<!-- Generator: Adobe Illustrator 22.1.0, SVG Export Plug-In . SVG Version: 6.00 Build 0)  -->
<svg version="1.1" id="Layer_1" xmlns="http://www.w3.org/2000/svg" xmlns:xlink="http://www.w3.org/1999/xlink" x="0px" y="0px"
	 viewBox="0 0 300 300" style="enable-background:new 0 0 300 300;" xml:space="preserve">
<path d="M133.8,280c-4.6,0-8.4-3.8-8.4-8.4v-94.4c0-22.2-4.5-27.6-15.6-38.7c-1.1-1.2-2.4-2.4-3.7-3.7L22.8,51.3
	C21,49.5,20,47.2,20,44.7s1-4.9,2.7-6.6L42.8,18c1.7-1.8,4.1-2.7,6.6-2.7s4.9,1,6.6,2.7l92.9,92.8l96.1-96.1
	c0.9-0.9,2.1-1.4,3.4-1.4c1.3,0,2.4,0.5,3.3,1.4l26.7,26.7c1.8,1.8,1.8,4.8,0.1,6.6l-92.9,92.9l-0.2,0.3c-10.8,14-12.5,30.5-12.7,37
	l0,0.2v93.3c0,4.6-3.8,8.4-8.4,8.4H133.8z"/>
<path d="M59.8,181.6v-12c0-4.6,3.8-8.4,8.4-8.4h163.4c4.6,0,8.4,3.8,8.4,8.4v12c0,4.6-3.8,8.4-8.4,8.4H68.1
	C63.5,189.9,59.8,186.2,59.8,181.6z"/>
<path d="M59.8,222.9v-12c0-4.6,3.8-8.4,8.4-8.4h163.4c4.6,0,8.4,3.8,8.4,8.4v12c0,4.6-3.8,8.4-8.4,8.4H68.1
	C63.5,231.3,59.8,227.6,59.8,222.9z"/>
</svg>
