<?xml version="1.0" encoding="utf-8"?>
<!-- Generator: Adobe Illustrator 22.1.0, SVG Export Plug-In . SVG Version: 6.00 Build 0)  -->
<svg version="1.1" id="Layer_1" xmlns="http://www.w3.org/2000/svg" xmlns:xlink="http://www.w3.org/1999/xlink" x="0px" y="0px"
	 viewBox="0 0 300 300" style="enable-background:new 0 0 300 300;" xml:space="preserve">
<g>
	<path d="M46.6,174.5v-42h21c-4.5-11.5-7.8-23.5-7.8-35.4c0-42.4,31.3-76.2,89.4-76.2c38.7,0,67.9,18.1,83.2,49.8l-45.7,27.2
		c-9.1-18.9-19.4-27.6-37.5-27.6c-19.8,0-33.4,9.9-33.4,30.1c0,10.3,2.9,21,7,32.1h63.8v42h-48.2c4.5,13.6,7.8,28,7.8,43.2
		c0,1.2,0,2.5,0,3.7c11.1,5.4,22.2,9.5,34.2,9.5c14,0,24.3-6.2,33.4-16.1l32.5,33.4c-14.8,20.2-37.9,30.9-63.4,30.9
		c-23.9,0-42-9.5-56.8-20.2c-12.8,11.9-30.1,20.2-49.4,20.2c-32.9,0-53.9-18.9-53.9-45.3s21.4-42,46.9-42c9.1,0,17.7,1.6,25.5,4.1
		c-2.1-7-5.4-14.4-8.6-21.4H46.6z M75.1,224.7c-7.8,0-13.2,4.5-13.2,10.7c0,6.2,5.4,10.7,13.6,10.7c9.9,0,17.3-4.9,21-11.9
		C89.1,228.4,82.5,224.7,75.1,224.7z"/>
</g>
</svg>
