<?xml version="1.0" encoding="utf-8"?>
<!-- Generator: Adobe Illustrator 22.1.0, SVG Export Plug-In . SVG Version: 6.00 Build 0)  -->
<svg version="1.1" id="Layer_1" xmlns="http://www.w3.org/2000/svg" xmlns:xlink="http://www.w3.org/1999/xlink" x="0px" y="0px"
	 viewBox="0 0 300 300" style="enable-background:new 0 0 300 300;" xml:space="preserve">
<g>
	<path d="M79.3,116.2l50.3-67.4H174l-63.7,85.5l71.5,103.2h-47.2L84,163.3l-18.4,21.9v52.2H26.5V48.7h39.1v65.2
		c0,9.2-1.4,22.2-2.5,31.6C67.6,135.6,73.4,123.9,79.3,116.2z"/>
	<path d="M200,119.2h37.7l-0.6,21.4c8.7-19.4,22.6-23.9,34.9-23.9c7.8,0,13.7,2.2,18.4,4.7l-12,34.1c-4.7-2.2-9.2-3.6-14.5-3.6
		c-17,0-26.3,7.8-26.3,33v52.4H200V119.2z"/>
</g>
</svg>
