<?xml version="1.0" encoding="utf-8"?>
<!-- Generator: Adobe Illustrator 22.1.0, SVG Export Plug-In . SVG Version: 6.00 Build 0)  -->
<svg version="1.1" id="Layer_1" xmlns="http://www.w3.org/2000/svg" xmlns:xlink="http://www.w3.org/1999/xlink" x="0px" y="0px"
	 viewBox="0 0 300 300" style="enable-background:new 0 0 300 300;" xml:space="preserve">
<style type="text/css">
	.st0{fill:none;stroke:#000000;stroke-width:25;stroke-miterlimit:10;}
</style>
<circle class="st0" cx="150" cy="150" r="136.2"/>
<path d="M217.6,189.1c0-15.2-7.3-29-19.3-39.1c-10.1-8.5-23.4-14.4-38.4-16.2V90c6.5,2,11.9,6,14.9,11.1c2.3,3.9,7.5,4.6,10.7,1.5
	l17.1-17.1c2.7-2.7,2.6-6.9,0-9.6c-10.4-10.7-25.5-18.2-42.7-20.3V41.7c0-3.9-3.2-7.1-7.1-7.1h-5.8c-3.9,0-7.1,3.2-7.1,7.1v13.9
	c-32.6,4-57.6,27.2-57.6,55.4c0,15.2,7.3,29,19.3,39.1c10.1,8.5,23.4,14.4,38.4,16.2V210c-6.5-2-11.9-6-14.9-11.1
	c-2.3-3.9-7.5-4.6-10.7-1.5l-17.1,17.1c-2.7,2.7-2.6,6.9,0,9.6c10.4,10.7,25.5,18.2,42.7,20.3v13.9c0,3.9,3.2,7.1,7.1,7.1h5.8
	c3.9,0,7.1-3.2,7.1-7.1v-13.9C192.6,240.5,217.6,217.2,217.6,189.1z M123.9,110.9c0-9.1,6.7-17,16.2-20.4v40.8
	C130.5,127.9,123.9,120,123.9,110.9z M160,209.5v-40.8c9.5,3.4,16.2,11.3,16.2,20.4C176.1,198.2,169.5,206.1,160,209.5z"/>
</svg>
