<?xml version="1.0" encoding="utf-8"?>
<!-- Generator: Adobe Illustrator 22.1.0, SVG Export Plug-In . SVG Version: 6.00 Build 0)  -->
<svg version="1.1" id="Layer_1" xmlns="http://www.w3.org/2000/svg" xmlns:xlink="http://www.w3.org/1999/xlink" x="0px" y="0px"
	 viewBox="0 0 300 300" style="enable-background:new 0 0 300 300;" xml:space="preserve">
<style type="text/css">
	.st0{fill:none;stroke:#000000;stroke-width:25;stroke-miterlimit:10;}
</style>
<circle class="st0" cx="150" cy="150" r="136.2"/>
<path d="M117.7,154.3v-8.6c0-3.3,2.7-6,6-6h64.7c3.3,0,6,2.7,6,6v8.6c0,3.3-2.7,6-6,6h-64.7C120.3,160.3,117.7,157.6,117.7,154.3z"
	/>
<path d="M92.8,165c-1.7-1.7-4.2-1.9-6.2-0.6c-2.8,1.7-6.1,2.7-9.7,2.7c-9.9,0-17.9-7.7-17.9-17.1c0-9.5,8-17.1,17.9-17.1
	c4,0,7.8,1.3,10.8,3.4c2.2,1.6,5.1,1.3,6.8-0.8l9.8-11.2c2.2-2.6,1.8-6.7-0.9-8.7c-7.5-5.4-16.9-8.6-27.1-8.6
	c-24.9,0-45.1,19.3-45.1,43s20.2,43,45.1,43c9.9,0,19.1-3.1,26.5-8.2c3-2.1,3.4-6.6,0.7-9.1L92.8,165z"/>
<path d="M207.4,193h15c4.1,0,7.4-3.3,7.4-7.4v-71.1c0-4.1-3.3-7.4-7.4-7.4h-15c-4.1,0-7.4,3.3-7.4,7.4v71.1
	C199.9,189.7,203.3,193,207.4,193z"/>
<path d="M213.1,114.1v15.7c0,3.9,3.2,7.1,7.1,7.1h36.4c3.9,0,7.1-3.2,7.1-7.1v-15.7c0-3.9-3.2-7.1-7.1-7.1h-36.4
	C216.2,107,213.1,110.2,213.1,114.1z"/>
<path d="M213.1,147.2v16c0,3.8,3.1,6.9,6.9,6.9h36.8c3.8,0,6.9-3.1,6.9-6.9v-16c0-3.8-3.1-6.9-6.9-6.9H220
	C216.2,140.3,213.1,143.4,213.1,147.2z"/>
<path d="M171.9,193h15c4.1,0,7.4-3.3,7.4-7.4v-71.1c0-4.1-3.3-7.4-7.4-7.4h-15c-4.1,0-7.4,3.3-7.4,7.4v71.1
	C164.4,189.7,167.8,193,171.9,193z"/>
<path d="M115.9,193h15c4.1,0,7.4-3.3,7.4-7.4v-71.1c0-4.1-3.3-7.4-7.4-7.4h-15c-4.1,0-7.4,3.3-7.4,7.4v71.1
	C108.4,189.7,111.8,193,115.9,193z"/>
</svg>
