<?xml version="1.0" encoding="utf-8"?>
<!-- Generator: Adobe Illustrator 22.1.0, SVG Export Plug-In . SVG Version: 6.00 Build 0)  -->
<svg version="1.1" id="Layer_1" xmlns="http://www.w3.org/2000/svg" xmlns:xlink="http://www.w3.org/1999/xlink" x="0px" y="0px"
	 viewBox="0 0 300 300" style="enable-background:new 0 0 300 300;" xml:space="preserve">
<style type="text/css">
	.st0{fill:none;stroke:#000000;stroke-width:25;stroke-miterlimit:10;}
</style>
<circle class="st0" cx="150" cy="150" r="136.2"/>
<path d="M245.6,88.9l-19.2-19.2c-2.7-2.7-7.1-2.7-9.9,0L150,136.2L85.8,72.1c-4-4-10.6-4-14.6,0L56.8,86.5c-4,4-4,10.6,0,14.6
	l59.9,59.9c9.2,9.5,12.8,11.2,12.8,28v67.8c0,5.3,4.3,9.6,9.6,9.6h22c5.3,0,9.6-4.3,9.6-9.6v-67c0.2-5.4,1.7-15.8,8.4-24.5
	l66.6-66.6C248.3,96,248.3,91.6,245.6,88.9z"/>
<path d="M85.4,171.3v-8.6c0-3.3,2.7-6,6-6h117.3c3.3,0,6,2.7,6,6v8.6c0,3.3-2.7,6-6,6H91.4C88.1,177.3,85.4,174.6,85.4,171.3z"/>
<path d="M85.4,212.7v-8.6c0-3.3,2.7-6,6-6h117.3c3.3,0,6,2.7,6,6v8.6c0,3.3-2.7,6-6,6H91.4C88.1,218.7,85.4,216.1,85.4,212.7z"/>
</svg>
