<?xml version="1.0" encoding="utf-8"?>
<!-- Generator: Adobe Illustrator 22.1.0, SVG Export Plug-In . SVG Version: 6.00 Build 0)  -->
<svg version="1.1" id="Layer_1" xmlns="http://www.w3.org/2000/svg" xmlns:xlink="http://www.w3.org/1999/xlink" x="0px" y="0px"
	 viewBox="0 0 300 300" style="enable-background:new 0 0 300 300;" xml:space="preserve">
<style type="text/css">
	.st0{fill:none;stroke:#000000;stroke-width:25;stroke-miterlimit:10;}
	.st1{stroke:#000000;stroke-miterlimit:10;}
</style>
<circle class="st0" cx="150" cy="150" r="136.2"/>
<path class="st1" d="M222.9,239.3l-20.4-38.5c-5.5-5.5-11-6.8-15.4-6.7c-7.3,4.2-15.7,6.7-24.8,6.7c-15.2,0-28.8-6.9-37.9-17.7h29.4
	c5.4,0,9.8-4.4,9.8-9.8v-2.3c0-5.4-4.4-9.8-9.8-9.8h-39.9c-0.5-2.5-0.8-5.1-0.9-7.8c0-1.1,0-2.1,0-3.2h40.8c5.4,0,9.8-4.4,9.8-9.8
	v-2.3c0-5.4-4.4-9.8-9.8-9.8H119c8.5-15.5,25-26.1,43.8-25.9c6.8,0.1,13.3,1.5,19.2,4.1c4.3,0.5,8.8-0.2,11.6-3.4l14.2-46.1
	c0.3-0.8-0.1-1.8-0.9-2.1c-4.6-2.3-9.5-4.2-14.6-5.7C140.5,32.9,85.9,60.5,67.4,110.7c-0.6,1.3-1.1,2.6-1.7,4
	c-1.4,3.3-2.7,6.6-3.7,10.1c-0.3,1.1-0.6,2.2-0.9,3.3H48.5c-5.4,0-9.8,4.4-9.8,9.8v2.3c0,5.4,4.4,9.8,9.8,9.8h9.2
	c-0.2,3.7-0.1,7.4,0.1,11H47.2c-5.4,0-9.8,4.4-9.8,9.8v2.3c0,5.4,4.4,9.8,9.8,9.8h14.5c8.8,29.9,31.2,55.1,62.3,66.6
	c27.6,12.4,60.3,12.3,89.1-2.9c1.4-0.7,2.9-1.5,4.2-2.4c0,0,0.1,0,0.1-0.1l4.9-2.6C223,241.2,223.4,240.1,222.9,239.3z"/>
</svg>
