<?xml version="1.0" encoding="utf-8"?>
<!-- Generator: Adobe Illustrator 22.1.0, SVG Export Plug-In . SVG Version: 6.00 Build 0)  -->
<svg version="1.1" id="Layer_1" xmlns="http://www.w3.org/2000/svg" xmlns:xlink="http://www.w3.org/1999/xlink" x="0px" y="0px"
	 viewBox="0 0 300 300" style="enable-background:new 0 0 300 300;" xml:space="preserve">
<style type="text/css">
	.st0{fill:none;stroke:#000000;stroke-width:25;stroke-miterlimit:10;}
</style>
<circle class="st0" cx="150" cy="150" r="136.2"/>
<path d="M-11.8,61.7c2.7-2.7,2.7-7.1,0-9.9"/>
<path d="M216.8,243.2c-8.5,1.4-17.6,1.7-26.9,0.7c-6.4-0.6-12.5-1.9-18.4-3.5c0,0.1,0,0.2,0,0.3c-22.8-8.4-44.1-1.8-46.2-1.1
	c-0.1,0-0.2,0.1-0.4,0.1l-32.8,7.1c-1.8,0.4-3.7-0.5-4.3-2.2L76,214.8c-0.8-2,0.5-4.2,2.8-4.5c7.9-1.2,23.7-5.9,26.6-25.8
	c2.2-13.8,0-25.6-3.6-35c-0.1-0.3-0.3-0.5-0.4-0.8c-2.2-3.1-4.3-6.1-6.2-8.9c-0.1-0.1-0.1-0.2-0.2-0.3c-4.2-4.8-7.6-10-10-15.5
	c0-0.1-0.1-0.1-0.1-0.1l0,0c-3.6-8.1-5.2-16.8-4.3-25.7c3.5-34.4,42.7-58.6,87.6-54.1C195.7,47,219,60,232.1,77.5
	c1.1,1.5,0.8,3.5-0.7,4.6l-30.8,23.2c-2.1,1.6-5.3,0.5-6-2.1c-2.7-10.9-14.4-19.9-29.4-21.4c-17.9-1.8-33.5,7.8-34.9,21.5
	c-0.2,1.6-0.1,3.1,0.1,4.7c0,0.3,0.1,0.6,0.2,0.8c0.7,1.8,1.5,3.8,2.3,5.9c0.2,0.5,0.4,1,0.6,1.5c0.1,0.2,0.2,0.5,0.3,0.7
	c0.2,0.2,0.3,0.5,0.5,0.7c0.1,0.2,0.2,0.3,0.3,0.5c2.8,5.9,5.1,12,7,18c0.2,0.5,0.4,1.1,0.6,1.7c0.5,1.2,1,2.3,1.5,3.3
	c3.1,7.2,6.8,18.7,6.6,32.9c-0.1,7-1.1,13.2-2.4,18.2c-0.4,1.5,0.4,3.2,2,3.9c0,0,0,0,0,0c13.8,6.4,28,9.2,41.5,9.9l0,0
	c1,0.2,1.9,0.3,2.9,0.4c3.5,0.4,6.8,0.3,10.1-0.2c2.4,0.1,5.9,1.2,7.6,5.3l1,3.7c0,0,0,0,0,0l6.4,23.7
	C220.2,240.9,218.9,242.8,216.8,243.2z"/>
<path d="M71.4,159.3V148c0-4.2,3.4-7.7,7.7-7.7h98.4c4.2,0,7.7,3.4,7.7,7.7v11.3c0,4.2-3.4,7.7-7.7,7.7H79.1
	C74.9,167,71.4,163.5,71.4,159.3z"/>
</svg>
