<?xml version="1.0" encoding="utf-8"?>
<!-- Generator: Adobe Illustrator 22.1.0, SVG Export Plug-In . SVG Version: 6.00 Build 0)  -->
<svg version="1.1" id="Layer_1" xmlns="http://www.w3.org/2000/svg" xmlns:xlink="http://www.w3.org/1999/xlink" x="0px" y="0px"
	 viewBox="0 0 300 300" style="enable-background:new 0 0 300 300;" xml:space="preserve">
<style type="text/css">
	.st0{fill:none;stroke:#000000;stroke-width:25;stroke-miterlimit:10;}
</style>
<circle class="st0" cx="150" cy="150" r="136.2"/>
<path d="M87.3,212.1v-8.6c0-3.3,2.7-6,6-6h113.5c3.3,0,6,2.7,6,6v8.6c0,3.3-2.7,6-6,6H93.3C90,218.1,87.3,215.4,87.3,212.1z"/>
<path d="M159.8,40.9c-3.8,0-7.5,0.3-11.1,0.9c-17.8,2.8-33.5,12.2-44.3,25.7V156c10.8,13.5,26.4,22.9,44.3,25.7
	c3.6,0.6,7.3,0.9,11.1,0.9c39.1,0,70.8-31.7,70.8-70.8C230.6,72.6,198.9,40.9,159.8,40.9z M160,138.6c-4,0-7.9-0.9-11.3-2.5
	c-9.2-4.3-15.5-13.5-15.5-24.3c0-10.8,6.3-20,15.5-24.3c3.4-1.6,7.3-2.5,11.3-2.5c14.8,0,26.8,12,26.8,26.8
	C186.8,126.6,174.8,138.6,160,138.6z"/>
<path d="M160,59.3L156.4,41c-7.7,0-13.7,0-18.4,0c-0.3,0-0.6-0.1-0.9-0.1H129h-12.9c-6.4,0-11.6,6.2-11.6,13.8v192.6
	c0,7.6,5.2,13.8,11.6,13.8h21.1c6.4,0,11.6-6.2,11.6-13.8V62.6L160,59.3z"/>
</svg>
