<?xml version="1.0" encoding="utf-8"?>
<!-- Generator: Adobe Illustrator 22.1.0, SVG Export Plug-In . SVG Version: 6.00 Build 0)  -->
<svg version="1.1" id="Layer_1" xmlns="http://www.w3.org/2000/svg" xmlns:xlink="http://www.w3.org/1999/xlink" x="0px" y="0px"
	 viewBox="0 0 300 300" style="enable-background:new 0 0 300 300;" xml:space="preserve">
<style type="text/css">
	.st0{fill:none;stroke:#000000;stroke-width:25;stroke-miterlimit:10;}
</style>
<circle class="st0" cx="150" cy="150" r="136.2"/>
<path d="M224.5,138.3c-23.4,0-43,14.6-47.7,34c-1.1,4.6,2.3,9,7,9h15.6c3.1,0,6-1.9,7-4.9c2.4-7.1,9.8-12.3,18.6-12.3
	c2.1,0,4,0.3,5.9,0.8c3.8,1.1,7.7-1,8.9-4.7l3.6-11c1.3-4-1-8.2-5.1-9.2C234,139,229.3,138.3,224.5,138.3z"/>
<path d="M75.5,236.3h15c4.1,0,7.4-3.3,7.4-7.4V71.4c0-4.1-3.3-7.4-7.4-7.4h-15c-4.1,0-7.4,3.3-7.4,7.4v157.4
	C68.1,233,71.4,236.3,75.5,236.3z"/>
<path d="M74.8,174.2l10.6,10.6c2.9,2.9,7.6,2.9,10.5,0l65-65c2.9-2.9,2.9-7.6,0-10.5l-10.6-10.6c-2.9-2.9-7.6-2.9-10.5,0l-65,65
	C71.9,166.5,71.9,171.3,74.8,174.2z"/>
<path d="M84.6,146.7L74,157.3c-2.9,2.9-2.9,7.6,0,10.5l67.5,67.5c2.9,2.9,7.6,2.9,10.5,0l10.6-10.6c2.9-2.9,2.9-7.6,0-10.5
	l-67.5-67.5C92.2,143.8,87.5,143.8,84.6,146.7z"/>
<path d="M183.2,238.7h15c4.1,0,7.4-3.3,7.4-7.4v-93.7c0-4.1-3.3-7.4-7.4-7.4h-15c-4.1,0-7.4,3.3-7.4,7.4v93.7
	C175.8,235.3,179.1,238.7,183.2,238.7z"/>
</svg>
