<?xml version="1.0" encoding="utf-8"?>
<!-- Generator: Adobe Illustrator 22.1.0, SVG Export Plug-In . SVG Version: 6.00 Build 0)  -->
<svg version="1.1" id="Layer_1" xmlns="http://www.w3.org/2000/svg" xmlns:xlink="http://www.w3.org/1999/xlink" x="0px" y="0px"
	 viewBox="0 0 300 300" style="enable-background:new 0 0 300 300;" xml:space="preserve">
<style type="text/css">
	.st0{fill:none;stroke:#000000;stroke-width:25;stroke-miterlimit:10;}
</style>
<circle class="st0" cx="150" cy="150" r="136.2"/>
<path d="M225.7,213.7L198,186c18.1-14,29.8-36,29.8-60.7c0-42.4-34.4-76.7-76.8-76.7c-1.2,0-2.5,0-3.7,0.1l0,0c-8.3,0-14.8,0-19.9,0
	c-0.3,0-0.6,0-1,0h-8.9h-14c-6.9,0-12.5,5.6-12.5,12.5v16.3v95.8v63c0,6.9,5.6,12.5,12.5,12.5h22.9c6.9,0,12.5-5.6,12.5-12.5v-35.2
	c2.3,0.4,4.6,0.6,7,0.8l45.8,45.8c5.2,5.2,13.6,5.2,18.8,0l15.2-15.2C230.9,227.3,230.9,218.9,225.7,213.7z M180.4,125.3
	c0,16-13,29.1-29,29.1c-4.4,0-8.5-1-12.2-2.7V98.9c3.7-1.7,7.9-2.7,12.2-2.7C167.4,96.2,180.4,109.2,180.4,125.3z"/>
</svg>
