<?xml version="1.0" encoding="utf-8"?>
<!-- Generator: Adobe Illustrator 22.1.0, SVG Export Plug-In . SVG Version: 6.00 Build 0)  -->
<svg version="1.1" id="Layer_1" xmlns="http://www.w3.org/2000/svg" xmlns:xlink="http://www.w3.org/1999/xlink" x="0px" y="0px"
	 viewBox="0 0 300 300" style="enable-background:new 0 0 300 300;" xml:space="preserve">
<style type="text/css">
	.st0{fill:#969696;stroke:#000000;stroke-width:8;stroke-miterlimit:10;}
	.st1{fill:#E5E5E5;stroke:#000000;stroke-width:5;stroke-miterlimit:10;}
	.st2{fill:#81C9DF;stroke:#000000;stroke-width:8;stroke-miterlimit:10;}
	.st3{fill:#82C9DF;stroke:#000000;stroke-width:8;stroke-miterlimit:10;}
	.st4{fill:#FFFFFF;stroke:#000000;stroke-width:5;stroke-miterlimit:10;}
	.st5{fill:#A09F9F;stroke:#000000;stroke-width:5;stroke-miterlimit:10;}
</style>
<circle class="st0" cx="194" cy="76.8" r="31.5"/>
<circle class="st0" cx="112" cy="76.8" r="31.5"/>
<path class="st1" d="M172,213.1l-127.8-3c-7-0.3-12.2-6.7-10.9-13.6L54.7,83.4c0.1-0.5,0.1-1.1,0.2-1.6c0.4-6.2,5.6-11.2,12-11.2
	h43.1h90H243c6.3,0,11.5,5,12,11.2c0,0.5,0.1,1.1,0.2,1.6l21.4,113.1c1.3,6.9-3.8,13.4-10.9,13.6l-87.4,3.3
	C172,213.1,172,213.1,172,213.1z"/>
<path class="st1" d="M154.9,200.5"/>
<circle class="st2" cx="87.1" cy="213.8" r="56.4"/>
<circle class="st3" cx="222.7" cy="213.8" r="56.4"/>
<path class="st4" d="M101.5,178.5c0.1,5.2-0.4,9.9-2.2,17c-4.3-1.5-7.7-1.6-14.1-2.1c-1.7-0.1-2.9-1.6-2.8-3.3
	c0.4-5.8,0.3-9.5,0.1-11.9c-0.2-1.9,1.4-3.5,3.2-3.4C89.4,175.2,95.3,176,101.5,178.5z"/>
<path class="st4" d="M121.2,211.8c-3.5-4.8-7.6-9.6-14.5-13.1c1.4-5.5,2.5-11.2,3.3-16c7.6,5,14.5,13.3,16.8,26.8
	C127.3,212.6,123.1,214.5,121.2,211.8z"/>
<path class="st4" d="M238,176c0.1,5.2-0.4,9.9-2.2,17c-4.3-1.5-7.7-1.6-14.1-2.1c-1.7-0.1-2.9-1.6-2.8-3.3c0.4-5.8,0.3-9.5,0.1-11.9
	c-0.2-1.9,1.4-3.5,3.2-3.4C225.9,172.6,231.8,173.5,238,176z"/>
<path class="st4" d="M258.2,211.8c-3.5-4.8-7.6-9.6-14.5-13.1c1.4-5.5,2.5-11.2,3.3-16c7.6,5,14.5,13.3,16.8,26.8
	C264.3,212.6,260.1,214.5,258.2,211.8z"/>
<path class="st5" d="M176.9,117.4c0,0.5,0,1,0,1.5c-0.1,1.7-2.4,2.3-3.3,0.8c-3.9-6.2-10.8-10.3-18.7-10.3c-7.6,0-14.2,3.8-18.2,9.6
	c-1.1,1.7-3.8,0.9-3.8-1.1c0,0,0,0,0-0.1c0-12.8,10.9-23,23.9-21.9C168,96.7,176.8,106.2,176.9,117.4z"/>
</svg>
