<svg width="1792" height="1792" xmlns="http://www.w3.org/2000/svg">

 <g>
  <title>background</title>
  <rect fill="none" id="canvas_background" height="402" width="582" y="-1" x="-1"/>
 </g>
 <g>
  <title>Layer 1</title>
  <path fill="#ffffff" id="svg_1" d="m1088,1248l0,224q0,26 -19,45t-45,19l-256,0q-26,0 -45,-19t-19,-45l0,-224q0,-26 19,-45t45,-19l256,0q26,0 45,19t19,45zm30,-1056l-28,768q-1,26 -20.5,45t-45.5,19l-256,0q-26,0 -45.5,-19t-20.5,-45l-28,-768q-1,-26 17.5,-45t44.5,-19l320,0q26,0 44.5,19t17.5,45z"/>
 </g>
</svg>