<?xml version="1.0" encoding="utf-8"?>
<!-- Generator: Adobe Illustrator 22.1.0, SVG Export Plug-In . SVG Version: 6.00 Build 0)  -->
<svg version="1.1" id="Layer_1" xmlns="http://www.w3.org/2000/svg" xmlns:xlink="http://www.w3.org/1999/xlink" x="0px" y="0px"
	 viewBox="0 0 30 30" style="enable-background:new 0 0 30 30;" xml:space="preserve">
<style type="text/css">
	.st0{fill:#FFCE00;}
</style>
<path class="st0" d="M15,3C8.4,3,3,8.4,3,15s5.4,12,12,12s12-5.4,12-12S21.6,3,15,3z M17.3,5.1L17,19.5H13L12.7,5.1H17.3z
	 M17.1,23.5c-0.1,0.3-0.3,0.5-0.5,0.7c-0.2,0.2-0.5,0.4-0.7,0.5c-0.3,0.1-0.6,0.2-0.9,0.2c-0.3,0-0.6,0-0.9-0.2
	c-0.3-0.1-0.5-0.3-0.7-0.5c-0.2-0.2-0.4-0.4-0.5-0.7c-0.1-0.3-0.2-0.6-0.2-0.9s0.1-0.6,0.2-0.9c0.1-0.3,0.3-0.5,0.5-0.7
	c0.2-0.2,0.5-0.4,0.7-0.5c0.3-0.1,0.6-0.2,0.9-0.2c0.3,0,0.6,0.1,0.9,0.2c0.3,0.1,0.5,0.3,0.7,0.5c0.2,0.2,0.4,0.4,0.5,0.7
	c0.1,0.3,0.2,0.6,0.2,0.9S17.2,23.2,17.1,23.5z"/>
<g>
</g>
</svg>
