<?xml version="1.0" standalone="no"?>
<!DOCTYPE svg PUBLIC "-//W3C//DTD SVG 20010904//EN"
 "http://www.w3.org/TR/2001/REC-SVG-20010904/DTD/svg10.dtd">
<svg version="1.0" xmlns="http://www.w3.org/2000/svg"
 width="700.000000pt" height="700.000000pt" viewBox="0 0 700.000000 700.000000"
 preserveAspectRatio="xMidYMid meet">
<metadata>
Created by potrace 1.11, written by Peter Selinger 2001-2013
</metadata>
<g transform="translate(0.000000,700.000000) scale(0.100000,-0.100000)"
fill="#000000" stroke="none">
<path d="M2547 6035 c-1 -2 -22 -5 -47 -9 -25 -3 -52 -7 -60 -9 -8 -2 -28 -7
-45 -11 -106 -26 -258 -110 -346 -193 -58 -54 -135 -157 -172 -228 -30 -58
-63 -147 -59 -158 4 -14 -20 -16 -183 -19 -151 -3 -163 -4 -215 -30 -70 -35
-109 -71 -148 -133 -30 -49 -34 -64 -77 -310 -3 -16 -12 -65 -21 -108 -8 -42
-17 -90 -20 -105 -2 -15 -9 -50 -15 -78 -5 -28 -12 -64 -15 -80 -2 -16 -11
-63 -19 -104 -8 -41 -17 -87 -20 -102 -3 -16 -7 -40 -11 -55 -3 -16 -16 -89
-30 -163 -36 -197 -63 -339 -74 -385 -5 -22 -12 -62 -16 -90 -3 -27 -8 -53
-10 -56 -2 -3 -6 -21 -9 -40 -3 -19 -8 -45 -10 -59 -3 -14 -7 -34 -9 -45 -24
-127 -37 -194 -41 -215 -5 -23 -14 -76 -20 -110 -4 -22 -34 -180 -40 -210 -3
-14 -10 -52 -16 -85 -27 -154 -50 -259 -58 -269 -15 -21 -75 -207 -87 -271
-19 -107 -30 -218 -28 -305 2 -144 7 -186 49 -368 29 -126 127 -324 228 -461
185 -252 478 -448 782 -525 179 -45 438 -54 605 -21 383 76 722 306 932 631
64 99 153 304 174 399 28 129 40 221 43 308 1 16 5 26 9 23 5 -3 79 -6 166 -8
86 -1 161 -5 165 -8 5 -3 12 -36 15 -75 8 -97 15 -141 33 -210 8 -33 16 -67
18 -75 5 -22 49 -136 78 -201 139 -310 452 -597 780 -716 181 -65 306 -87 497
-86 300 1 545 77 794 246 86 58 92 64 192 162 133 132 215 248 290 410 52 112
96 258 110 360 3 28 9 70 13 95 13 90 3 300 -20 400 -6 25 -13 56 -15 70 -3
14 -21 70 -41 125 -32 90 -68 225 -78 294 -2 14 -13 76 -24 136 -12 61 -23
121 -26 135 -2 14 -18 97 -35 185 -17 88 -33 171 -36 185 -5 32 -17 93 -19
100 0 3 -5 28 -10 55 -4 28 -9 55 -10 60 -2 6 -10 48 -18 95 -9 47 -18 96 -21
110 -3 14 -14 73 -25 133 -12 59 -30 155 -41 215 -11 59 -22 116 -24 127 -2
11 -12 61 -21 110 -9 50 -19 99 -21 110 -2 11 -8 43 -14 70 -5 28 -11 61 -14
75 -3 21 -48 255 -60 315 -2 11 -9 56 -16 100 -21 141 -84 233 -198 291 -57
29 -58 29 -269 32 l-212 3 -17 52 c-70 211 -218 384 -409 479 -61 31 -150 66
-150 59 0 -1 -13 2 -28 8 -91 35 -274 33 -432 -5 -69 -16 -206 -87 -275 -142
-138 -109 -226 -239 -293 -434 -6 -16 -23 -18 -157 -18 -135 0 -151 2 -156 18
-3 9 -10 25 -15 34 -5 10 -9 23 -9 30 0 20 -68 148 -108 203 -127 174 -337
303 -540 331 -46 7 -190 13 -195 9z"/>
</g>
</svg>
